<?xml version="1.0" encoding="utf-8" standalone="no"?>
<!DOCTYPE svg PUBLIC "-//W3C//DTD SVG 1.1//EN"
  "http://www.w3.org/Graphics/SVG/1.1/DTD/svg11.dtd">
<svg xmlns:xlink="http://www.w3.org/1999/xlink" width="864pt" height="345.6pt" viewBox="0 0 864 345.6" xmlns="http://www.w3.org/2000/svg" version="1.1">
 <metadata>
  <rdf:RDF xmlns:dc="http://purl.org/dc/elements/1.1/" xmlns:cc="http://creativecommons.org/ns#" xmlns:rdf="http://www.w3.org/1999/02/22-rdf-syntax-ns#">
   <cc:Work>
    <dc:type rdf:resource="http://purl.org/dc/dcmitype/StillImage"/>
    <dc:format>image/svg+xml</dc:format>
    <dc:creator>
     <cc:Agent>
      <dc:title>AutoCAD MCP Pro live benchmark renderer</dc:title>
     </cc:Agent>
    </dc:creator>
   </cc:Work>
  </rdf:RDF>
 </metadata>
 <defs>
  <style type="text/css">*{stroke-linejoin: round; stroke-linecap: butt}</style>
 </defs>
 <g id="figure_1">
  <g id="patch_1">
   <path d="M 0 345.6
L 864 345.6
L 864 0
L 0 0
z
" style="fill: #f6f8fa"/>
  </g>
  <g id="axes_1">
   <g id="patch_2">
    <path d="M 141.00649 288.476727
L 786.764245 288.476727
L 786.764245 44.677428
L 141.00649 44.677428
z
" style="fill: #f6f8fa"/>
   </g>
   <g id="matplotlib.axis_1">
    <g id="xtick_1">
     <g id="line2d_1">
      <path d="M 141.00649 288.476727
L 141.00649 44.677428
" clip-path="url(#p304dee3b76)" style="fill: none; stroke: #d0d7de; stroke-opacity: 0.8; stroke-width: 0.8; stroke-linecap: square"/>
     </g>
     <g id="line2d_2">
      <defs>
       <path id="m394179495f" d="M 0 0
L 0 3.5
" style="stroke: #57606a; stroke-width: 0.8"/>
      </defs>
      <g>
       <use xlink:href="#m394179495f" x="141.00649" y="288.476727" style="fill: #57606a; stroke: #57606a; stroke-width: 0.8"/>
      </g>
     </g>
     <g id="text_1">
      <!-- 0 -->
      <g style="fill: #57606a" transform="translate(137.82524 303.075165) scale(0.1 -0.1)">
       <defs>
        <path id="DejaVuSans-30" d="M 2034 4250
Q 1547 4250 1301 3770
Q 1056 3291 1056 2328
Q 1056 1369 1301 889
Q 1547 409 2034 409
Q 2525 409 2770 889
Q 3016 1369 3016 2328
Q 3016 3291 2770 3770
Q 2525 4250 2034 4250
z
M 2034 4750
Q 2819 4750 3233 4129
Q 3647 3509 3647 2328
Q 3647 1150 3233 529
Q 2819 -91 2034 -91
Q 1250 -91 836 529
Q 422 1150 422 2328
Q 422 3509 836 4129
Q 1250 4750 2034 4750
z
" transform="scale(0.015625)"/>
       </defs>
       <use xlink:href="#DejaVuSans-30"/>
      </g>
     </g>
    </g>
    <g id="xtick_2">
     <g id="line2d_3">
      <path d="M 270.158041 288.476727
L 270.158041 44.677428
" clip-path="url(#p304dee3b76)" style="fill: none; stroke: #d0d7de; stroke-opacity: 0.8; stroke-width: 0.8; stroke-linecap: square"/>
     </g>
     <g id="line2d_4">
      <g>
       <use xlink:href="#m394179495f" x="270.158041" y="288.476727" style="fill: #57606a; stroke: #57606a; stroke-width: 0.8"/>
      </g>
     </g>
     <g id="text_2">
      <!-- 20 -->
      <g style="fill: #57606a" transform="translate(263.795541 303.075165) scale(0.1 -0.1)">
       <defs>
        <path id="DejaVuSans-32" d="M 1228 531
L 3431 531
L 3431 0
L 469 0
L 469 531
Q 828 903 1448 1529
Q 2069 2156 2228 2338
Q 2531 2678 2651 2914
Q 2772 3150 2772 3378
Q 2772 3750 2511 3984
Q 2250 4219 1831 4219
Q 1534 4219 1204 4116
Q 875 4013 500 3803
L 500 4441
Q 881 4594 1212 4672
Q 1544 4750 1819 4750
Q 2544 4750 2975 4387
Q 3406 4025 3406 3419
Q 3406 3131 3298 2873
Q 3191 2616 2906 2266
Q 2828 2175 2409 1742
Q 1991 1309 1228 531
z
" transform="scale(0.015625)"/>
       </defs>
       <use xlink:href="#DejaVuSans-32"/>
       <use xlink:href="#DejaVuSans-30" transform="translate(63.623047 0)"/>
      </g>
     </g>
    </g>
    <g id="xtick_3">
     <g id="line2d_5">
      <path d="M 399.309592 288.476727
L 399.309592 44.677428
" clip-path="url(#p304dee3b76)" style="fill: none; stroke: #d0d7de; stroke-opacity: 0.8; stroke-width: 0.8; stroke-linecap: square"/>
     </g>
     <g id="line2d_6">
      <g>
       <use xlink:href="#m394179495f" x="399.309592" y="288.476727" style="fill: #57606a; stroke: #57606a; stroke-width: 0.8"/>
      </g>
     </g>
     <g id="text_3">
      <!-- 40 -->
      <g style="fill: #57606a" transform="translate(392.947092 303.075165) scale(0.1 -0.1)">
       <defs>
        <path id="DejaVuSans-34" d="M 2419 4116
L 825 1625
L 2419 1625
L 2419 4116
z
M 2253 4666
L 3047 4666
L 3047 1625
L 3713 1625
L 3713 1100
L 3047 1100
L 3047 0
L 2419 0
L 2419 1100
L 313 1100
L 313 1709
L 2253 4666
z
" transform="scale(0.015625)"/>
       </defs>
       <use xlink:href="#DejaVuSans-34"/>
       <use xlink:href="#DejaVuSans-30" transform="translate(63.623047 0)"/>
      </g>
     </g>
    </g>
    <g id="xtick_4">
     <g id="line2d_7">
      <path d="M 528.461143 288.476727
L 528.461143 44.677428
" clip-path="url(#p304dee3b76)" style="fill: none; stroke: #d0d7de; stroke-opacity: 0.8; stroke-width: 0.8; stroke-linecap: square"/>
     </g>
     <g id="line2d_8">
      <g>
       <use xlink:href="#m394179495f" x="528.461143" y="288.476727" style="fill: #57606a; stroke: #57606a; stroke-width: 0.8"/>
      </g>
     </g>
     <g id="text_4">
      <!-- 60 -->
      <g style="fill: #57606a" transform="translate(522.098643 303.075165) scale(0.1 -0.1)">
       <defs>
        <path id="DejaVuSans-36" d="M 2113 2584
Q 1688 2584 1439 2293
Q 1191 2003 1191 1497
Q 1191 994 1439 701
Q 1688 409 2113 409
Q 2538 409 2786 701
Q 3034 994 3034 1497
Q 3034 2003 2786 2293
Q 2538 2584 2113 2584
z
M 3366 4563
L 3366 3988
Q 3128 4100 2886 4159
Q 2644 4219 2406 4219
Q 1781 4219 1451 3797
Q 1122 3375 1075 2522
Q 1259 2794 1537 2939
Q 1816 3084 2150 3084
Q 2853 3084 3261 2657
Q 3669 2231 3669 1497
Q 3669 778 3244 343
Q 2819 -91 2113 -91
Q 1303 -91 875 529
Q 447 1150 447 2328
Q 447 3434 972 4092
Q 1497 4750 2381 4750
Q 2619 4750 2861 4703
Q 3103 4656 3366 4563
z
" transform="scale(0.015625)"/>
       </defs>
       <use xlink:href="#DejaVuSans-36"/>
       <use xlink:href="#DejaVuSans-30" transform="translate(63.623047 0)"/>
      </g>
     </g>
    </g>
    <g id="xtick_5">
     <g id="line2d_9">
      <path d="M 657.612694 288.476727
L 657.612694 44.677428
" clip-path="url(#p304dee3b76)" style="fill: none; stroke: #d0d7de; stroke-opacity: 0.8; stroke-width: 0.8; stroke-linecap: square"/>
     </g>
     <g id="line2d_10">
      <g>
       <use xlink:href="#m394179495f" x="657.612694" y="288.476727" style="fill: #57606a; stroke: #57606a; stroke-width: 0.8"/>
      </g>
     </g>
     <g id="text_5">
      <!-- 80 -->
      <g style="fill: #57606a" transform="translate(651.250194 303.075165) scale(0.1 -0.1)">
       <defs>
        <path id="DejaVuSans-38" d="M 2034 2216
Q 1584 2216 1326 1975
Q 1069 1734 1069 1313
Q 1069 891 1326 650
Q 1584 409 2034 409
Q 2484 409 2743 651
Q 3003 894 3003 1313
Q 3003 1734 2745 1975
Q 2488 2216 2034 2216
z
M 1403 2484
Q 997 2584 770 2862
Q 544 3141 544 3541
Q 544 4100 942 4425
Q 1341 4750 2034 4750
Q 2731 4750 3128 4425
Q 3525 4100 3525 3541
Q 3525 3141 3298 2862
Q 3072 2584 2669 2484
Q 3125 2378 3379 2068
Q 3634 1759 3634 1313
Q 3634 634 3220 271
Q 2806 -91 2034 -91
Q 1263 -91 848 271
Q 434 634 434 1313
Q 434 1759 690 2068
Q 947 2378 1403 2484
z
M 1172 3481
Q 1172 3119 1398 2916
Q 1625 2713 2034 2713
Q 2441 2713 2670 2916
Q 2900 3119 2900 3481
Q 2900 3844 2670 4047
Q 2441 4250 2034 4250
Q 1625 4250 1398 4047
Q 1172 3844 1172 3481
z
" transform="scale(0.015625)"/>
       </defs>
       <use xlink:href="#DejaVuSans-38"/>
       <use xlink:href="#DejaVuSans-30" transform="translate(63.623047 0)"/>
      </g>
     </g>
    </g>
    <g id="xtick_6">
     <g id="line2d_11">
      <path d="M 786.764245 288.476727
L 786.764245 44.677428
" clip-path="url(#p304dee3b76)" style="fill: none; stroke: #d0d7de; stroke-opacity: 0.8; stroke-width: 0.8; stroke-linecap: square"/>
     </g>
     <g id="line2d_12">
      <g>
       <use xlink:href="#m394179495f" x="786.764245" y="288.476727" style="fill: #57606a; stroke: #57606a; stroke-width: 0.8"/>
      </g>
     </g>
     <g id="text_6">
      <!-- 100 -->
      <g style="fill: #57606a" transform="translate(777.220495 303.075165) scale(0.1 -0.1)">
       <defs>
        <path id="DejaVuSans-31" d="M 794 531
L 1825 531
L 1825 4091
L 703 3866
L 703 4441
L 1819 4666
L 2450 4666
L 2450 531
L 3481 531
L 3481 0
L 794 0
L 794 531
z
" transform="scale(0.015625)"/>
       </defs>
       <use xlink:href="#DejaVuSans-31"/>
       <use xlink:href="#DejaVuSans-30" transform="translate(63.623047 0)"/>
       <use xlink:href="#DejaVuSans-30" transform="translate(127.246094 0)"/>
      </g>
     </g>
    </g>
    <g id="text_7">
     <!-- Weighted live-run score / 100 (fixed 10-task matrix) -->
     <g style="fill: #24292f" transform="translate(334.326774 322.75329) scale(0.1 -0.1)">
      <defs>
       <path id="DejaVuSans-57" d="M 213 4666
L 850 4666
L 1831 722
L 2809 4666
L 3519 4666
L 4500 722
L 5478 4666
L 6119 4666
L 4947 0
L 4153 0
L 3169 4050
L 2175 0
L 1381 0
L 213 4666
z
" transform="scale(0.015625)"/>
       <path id="DejaVuSans-65" d="M 3597 1894
L 3597 1613
L 953 1613
Q 991 1019 1311 708
Q 1631 397 2203 397
Q 2534 397 2845 478
Q 3156 559 3463 722
L 3463 178
Q 3153 47 2828 -22
Q 2503 -91 2169 -91
Q 1331 -91 842 396
Q 353 884 353 1716
Q 353 2575 817 3079
Q 1281 3584 2069 3584
Q 2775 3584 3186 3129
Q 3597 2675 3597 1894
z
M 3022 2063
Q 3016 2534 2758 2815
Q 2500 3097 2075 3097
Q 1594 3097 1305 2825
Q 1016 2553 972 2059
L 3022 2063
z
" transform="scale(0.015625)"/>
       <path id="DejaVuSans-69" d="M 603 3500
L 1178 3500
L 1178 0
L 603 0
L 603 3500
z
M 603 4863
L 1178 4863
L 1178 4134
L 603 4134
L 603 4863
z
" transform="scale(0.015625)"/>
       <path id="DejaVuSans-67" d="M 2906 1791
Q 2906 2416 2648 2759
Q 2391 3103 1925 3103
Q 1463 3103 1205 2759
Q 947 2416 947 1791
Q 947 1169 1205 825
Q 1463 481 1925 481
Q 2391 481 2648 825
Q 2906 1169 2906 1791
z
M 3481 434
Q 3481 -459 3084 -895
Q 2688 -1331 1869 -1331
Q 1566 -1331 1297 -1286
Q 1028 -1241 775 -1147
L 775 -588
Q 1028 -725 1275 -790
Q 1522 -856 1778 -856
Q 2344 -856 2625 -561
Q 2906 -266 2906 331
L 2906 616
Q 2728 306 2450 153
Q 2172 0 1784 0
Q 1141 0 747 490
Q 353 981 353 1791
Q 353 2603 747 3093
Q 1141 3584 1784 3584
Q 2172 3584 2450 3431
Q 2728 3278 2906 2969
L 2906 3500
L 3481 3500
L 3481 434
z
" transform="scale(0.015625)"/>
       <path id="DejaVuSans-68" d="M 3513 2113
L 3513 0
L 2938 0
L 2938 2094
Q 2938 2591 2744 2837
Q 2550 3084 2163 3084
Q 1697 3084 1428 2787
Q 1159 2491 1159 1978
L 1159 0
L 581 0
L 581 4863
L 1159 4863
L 1159 2956
Q 1366 3272 1645 3428
Q 1925 3584 2291 3584
Q 2894 3584 3203 3211
Q 3513 2838 3513 2113
z
" transform="scale(0.015625)"/>
       <path id="DejaVuSans-74" d="M 1172 4494
L 1172 3500
L 2356 3500
L 2356 3053
L 1172 3053
L 1172 1153
Q 1172 725 1289 603
Q 1406 481 1766 481
L 2356 481
L 2356 0
L 1766 0
Q 1100 0 847 248
Q 594 497 594 1153
L 594 3053
L 172 3053
L 172 3500
L 594 3500
L 594 4494
L 1172 4494
z
" transform="scale(0.015625)"/>
       <path id="DejaVuSans-64" d="M 2906 2969
L 2906 4863
L 3481 4863
L 3481 0
L 2906 0
L 2906 525
Q 2725 213 2448 61
Q 2172 -91 1784 -91
Q 1150 -91 751 415
Q 353 922 353 1747
Q 353 2572 751 3078
Q 1150 3584 1784 3584
Q 2172 3584 2448 3432
Q 2725 3281 2906 2969
z
M 947 1747
Q 947 1113 1208 752
Q 1469 391 1925 391
Q 2381 391 2643 752
Q 2906 1113 2906 1747
Q 2906 2381 2643 2742
Q 2381 3103 1925 3103
Q 1469 3103 1208 2742
Q 947 2381 947 1747
z
" transform="scale(0.015625)"/>
       <path id="DejaVuSans-20" transform="scale(0.015625)"/>
       <path id="DejaVuSans-6c" d="M 603 4863
L 1178 4863
L 1178 0
L 603 0
L 603 4863
z
" transform="scale(0.015625)"/>
       <path id="DejaVuSans-76" d="M 191 3500
L 800 3500
L 1894 563
L 2988 3500
L 3597 3500
L 2284 0
L 1503 0
L 191 3500
z
" transform="scale(0.015625)"/>
       <path id="DejaVuSans-2d" d="M 313 2009
L 1997 2009
L 1997 1497
L 313 1497
L 313 2009
z
" transform="scale(0.015625)"/>
       <path id="DejaVuSans-72" d="M 2631 2963
Q 2534 3019 2420 3045
Q 2306 3072 2169 3072
Q 1681 3072 1420 2755
Q 1159 2438 1159 1844
L 1159 0
L 581 0
L 581 3500
L 1159 3500
L 1159 2956
Q 1341 3275 1631 3429
Q 1922 3584 2338 3584
Q 2397 3584 2469 3576
Q 2541 3569 2628 3553
L 2631 2963
z
" transform="scale(0.015625)"/>
       <path id="DejaVuSans-75" d="M 544 1381
L 544 3500
L 1119 3500
L 1119 1403
Q 1119 906 1312 657
Q 1506 409 1894 409
Q 2359 409 2629 706
Q 2900 1003 2900 1516
L 2900 3500
L 3475 3500
L 3475 0
L 2900 0
L 2900 538
Q 2691 219 2414 64
Q 2138 -91 1772 -91
Q 1169 -91 856 284
Q 544 659 544 1381
z
M 1991 3584
L 1991 3584
z
" transform="scale(0.015625)"/>
       <path id="DejaVuSans-6e" d="M 3513 2113
L 3513 0
L 2938 0
L 2938 2094
Q 2938 2591 2744 2837
Q 2550 3084 2163 3084
Q 1697 3084 1428 2787
Q 1159 2491 1159 1978
L 1159 0
L 581 0
L 581 3500
L 1159 3500
L 1159 2956
Q 1366 3272 1645 3428
Q 1925 3584 2291 3584
Q 2894 3584 3203 3211
Q 3513 2838 3513 2113
z
" transform="scale(0.015625)"/>
       <path id="DejaVuSans-73" d="M 2834 3397
L 2834 2853
Q 2591 2978 2328 3040
Q 2066 3103 1784 3103
Q 1356 3103 1142 2972
Q 928 2841 928 2578
Q 928 2378 1081 2264
Q 1234 2150 1697 2047
L 1894 2003
Q 2506 1872 2764 1633
Q 3022 1394 3022 966
Q 3022 478 2636 193
Q 2250 -91 1575 -91
Q 1294 -91 989 -36
Q 684 19 347 128
L 347 722
Q 666 556 975 473
Q 1284 391 1588 391
Q 1994 391 2212 530
Q 2431 669 2431 922
Q 2431 1156 2273 1281
Q 2116 1406 1581 1522
L 1381 1569
Q 847 1681 609 1914
Q 372 2147 372 2553
Q 372 3047 722 3315
Q 1072 3584 1716 3584
Q 2034 3584 2315 3537
Q 2597 3491 2834 3397
z
" transform="scale(0.015625)"/>
       <path id="DejaVuSans-63" d="M 3122 3366
L 3122 2828
Q 2878 2963 2633 3030
Q 2388 3097 2138 3097
Q 1578 3097 1268 2742
Q 959 2388 959 1747
Q 959 1106 1268 751
Q 1578 397 2138 397
Q 2388 397 2633 464
Q 2878 531 3122 666
L 3122 134
Q 2881 22 2623 -34
Q 2366 -91 2075 -91
Q 1284 -91 818 406
Q 353 903 353 1747
Q 353 2603 823 3093
Q 1294 3584 2113 3584
Q 2378 3584 2631 3529
Q 2884 3475 3122 3366
z
" transform="scale(0.015625)"/>
       <path id="DejaVuSans-6f" d="M 1959 3097
Q 1497 3097 1228 2736
Q 959 2375 959 1747
Q 959 1119 1226 758
Q 1494 397 1959 397
Q 2419 397 2687 759
Q 2956 1122 2956 1747
Q 2956 2369 2687 2733
Q 2419 3097 1959 3097
z
M 1959 3584
Q 2709 3584 3137 3096
Q 3566 2609 3566 1747
Q 3566 888 3137 398
Q 2709 -91 1959 -91
Q 1206 -91 779 398
Q 353 888 353 1747
Q 353 2609 779 3096
Q 1206 3584 1959 3584
z
" transform="scale(0.015625)"/>
       <path id="DejaVuSans-2f" d="M 1625 4666
L 2156 4666
L 531 -594
L 0 -594
L 1625 4666
z
" transform="scale(0.015625)"/>
       <path id="DejaVuSans-28" d="M 1984 4856
Q 1566 4138 1362 3434
Q 1159 2731 1159 2009
Q 1159 1288 1364 580
Q 1569 -128 1984 -844
L 1484 -844
Q 1016 -109 783 600
Q 550 1309 550 2009
Q 550 2706 781 3412
Q 1013 4119 1484 4856
L 1984 4856
z
" transform="scale(0.015625)"/>
       <path id="DejaVuSans-66" d="M 2375 4863
L 2375 4384
L 1825 4384
Q 1516 4384 1395 4259
Q 1275 4134 1275 3809
L 1275 3500
L 2222 3500
L 2222 3053
L 1275 3053
L 1275 0
L 697 0
L 697 3053
L 147 3053
L 147 3500
L 697 3500
L 697 3744
Q 697 4328 969 4595
Q 1241 4863 1831 4863
L 2375 4863
z
" transform="scale(0.015625)"/>
       <path id="DejaVuSans-78" d="M 3513 3500
L 2247 1797
L 3578 0
L 2900 0
L 1881 1375
L 863 0
L 184 0
L 1544 1831
L 300 3500
L 978 3500
L 1906 2253
L 2834 3500
L 3513 3500
z
" transform="scale(0.015625)"/>
       <path id="DejaVuSans-61" d="M 2194 1759
Q 1497 1759 1228 1600
Q 959 1441 959 1056
Q 959 750 1161 570
Q 1363 391 1709 391
Q 2188 391 2477 730
Q 2766 1069 2766 1631
L 2766 1759
L 2194 1759
z
M 3341 1997
L 3341 0
L 2766 0
L 2766 531
Q 2569 213 2275 61
Q 1981 -91 1556 -91
Q 1019 -91 701 211
Q 384 513 384 1019
Q 384 1609 779 1909
Q 1175 2209 1959 2209
L 2766 2209
L 2766 2266
Q 2766 2663 2505 2880
Q 2244 3097 1772 3097
Q 1472 3097 1187 3025
Q 903 2953 641 2809
L 641 3341
Q 956 3463 1253 3523
Q 1550 3584 1831 3584
Q 2591 3584 2966 3190
Q 3341 2797 3341 1997
z
" transform="scale(0.015625)"/>
       <path id="DejaVuSans-6b" d="M 581 4863
L 1159 4863
L 1159 1991
L 2875 3500
L 3609 3500
L 1753 1863
L 3688 0
L 2938 0
L 1159 1709
L 1159 0
L 581 0
L 581 4863
z
" transform="scale(0.015625)"/>
       <path id="DejaVuSans-6d" d="M 3328 2828
Q 3544 3216 3844 3400
Q 4144 3584 4550 3584
Q 5097 3584 5394 3201
Q 5691 2819 5691 2113
L 5691 0
L 5113 0
L 5113 2094
Q 5113 2597 4934 2840
Q 4756 3084 4391 3084
Q 3944 3084 3684 2787
Q 3425 2491 3425 1978
L 3425 0
L 2847 0
L 2847 2094
Q 2847 2600 2669 2842
Q 2491 3084 2119 3084
Q 1678 3084 1418 2786
Q 1159 2488 1159 1978
L 1159 0
L 581 0
L 581 3500
L 1159 3500
L 1159 2956
Q 1356 3278 1631 3431
Q 1906 3584 2284 3584
Q 2666 3584 2933 3390
Q 3200 3197 3328 2828
z
" transform="scale(0.015625)"/>
       <path id="DejaVuSans-29" d="M 513 4856
L 1013 4856
Q 1481 4119 1714 3412
Q 1947 2706 1947 2009
Q 1947 1309 1714 600
Q 1481 -109 1013 -844
L 513 -844
Q 928 -128 1133 580
Q 1338 1288 1338 2009
Q 1338 2731 1133 3434
Q 928 4138 513 4856
z
" transform="scale(0.015625)"/>
      </defs>
      <use xlink:href="#DejaVuSans-57"/>
      <use xlink:href="#DejaVuSans-65" transform="translate(93.001953 0)"/>
      <use xlink:href="#DejaVuSans-69" transform="translate(154.525391 0)"/>
      <use xlink:href="#DejaVuSans-67" transform="translate(182.308594 0)"/>
      <use xlink:href="#DejaVuSans-68" transform="translate(245.785156 0)"/>
      <use xlink:href="#DejaVuSans-74" transform="translate(309.164062 0)"/>
      <use xlink:href="#DejaVuSans-65" transform="translate(348.373047 0)"/>
      <use xlink:href="#DejaVuSans-64" transform="translate(409.896484 0)"/>
      <use xlink:href="#DejaVuSans-20" transform="translate(473.373047 0)"/>
      <use xlink:href="#DejaVuSans-6c" transform="translate(505.160156 0)"/>
      <use xlink:href="#DejaVuSans-69" transform="translate(532.943359 0)"/>
      <use xlink:href="#DejaVuSans-76" transform="translate(560.726562 0)"/>
      <use xlink:href="#DejaVuSans-65" transform="translate(619.90625 0)"/>
      <use xlink:href="#DejaVuSans-2d" transform="translate(681.429688 0)"/>
      <use xlink:href="#DejaVuSans-72" transform="translate(717.513672 0)"/>
      <use xlink:href="#DejaVuSans-75" transform="translate(758.626953 0)"/>
      <use xlink:href="#DejaVuSans-6e" transform="translate(822.005859 0)"/>
      <use xlink:href="#DejaVuSans-20" transform="translate(885.384766 0)"/>
      <use xlink:href="#DejaVuSans-73" transform="translate(917.171875 0)"/>
      <use xlink:href="#DejaVuSans-63" transform="translate(969.271484 0)"/>
      <use xlink:href="#DejaVuSans-6f" transform="translate(1024.251953 0)"/>
      <use xlink:href="#DejaVuSans-72" transform="translate(1085.433594 0)"/>
      <use xlink:href="#DejaVuSans-65" transform="translate(1124.296875 0)"/>
      <use xlink:href="#DejaVuSans-20" transform="translate(1185.820312 0)"/>
      <use xlink:href="#DejaVuSans-2f" transform="translate(1217.607422 0)"/>
      <use xlink:href="#DejaVuSans-20" transform="translate(1251.298828 0)"/>
      <use xlink:href="#DejaVuSans-31" transform="translate(1283.085938 0)"/>
      <use xlink:href="#DejaVuSans-30" transform="translate(1346.708984 0)"/>
      <use xlink:href="#DejaVuSans-30" transform="translate(1410.332031 0)"/>
      <use xlink:href="#DejaVuSans-20" transform="translate(1473.955078 0)"/>
      <use xlink:href="#DejaVuSans-28" transform="translate(1505.742188 0)"/>
      <use xlink:href="#DejaVuSans-66" transform="translate(1544.755859 0)"/>
      <use xlink:href="#DejaVuSans-69" transform="translate(1579.960938 0)"/>
      <use xlink:href="#DejaVuSans-78" transform="translate(1607.744141 0)"/>
      <use xlink:href="#DejaVuSans-65" transform="translate(1663.798828 0)"/>
      <use xlink:href="#DejaVuSans-64" transform="translate(1725.322266 0)"/>
      <use xlink:href="#DejaVuSans-20" transform="translate(1788.798828 0)"/>
      <use xlink:href="#DejaVuSans-31" transform="translate(1820.585938 0)"/>
      <use xlink:href="#DejaVuSans-30" transform="translate(1884.208984 0)"/>
      <use xlink:href="#DejaVuSans-2d" transform="translate(1947.832031 0)"/>
      <use xlink:href="#DejaVuSans-74" transform="translate(1983.916016 0)"/>
      <use xlink:href="#DejaVuSans-61" transform="translate(2023.125 0)"/>
      <use xlink:href="#DejaVuSans-73" transform="translate(2084.404297 0)"/>
      <use xlink:href="#DejaVuSans-6b" transform="translate(2136.503906 0)"/>
      <use xlink:href="#DejaVuSans-20" transform="translate(2194.414062 0)"/>
      <use xlink:href="#DejaVuSans-6d" transform="translate(2226.201172 0)"/>
      <use xlink:href="#DejaVuSans-61" transform="translate(2323.613281 0)"/>
      <use xlink:href="#DejaVuSans-74" transform="translate(2384.892578 0)"/>
      <use xlink:href="#DejaVuSans-72" transform="translate(2424.101562 0)"/>
      <use xlink:href="#DejaVuSans-69" transform="translate(2465.214844 0)"/>
      <use xlink:href="#DejaVuSans-78" transform="translate(2492.998047 0)"/>
      <use xlink:href="#DejaVuSans-29" transform="translate(2552.177734 0)"/>
     </g>
    </g>
   </g>
   <g id="matplotlib.axis_2">
    <g id="ytick_1">
     <g id="line2d_13"/>
     <g id="text_8">
      <!-- puran-water-autocad-mcp -->
      <g style="fill: #24292f" transform="translate(3.00024 256.281616) scale(0.1 -0.1)">
       <defs>
        <path id="DejaVuSans-70" d="M 1159 525
L 1159 -1331
L 581 -1331
L 581 3500
L 1159 3500
L 1159 2969
Q 1341 3281 1617 3432
Q 1894 3584 2278 3584
Q 2916 3584 3314 3078
Q 3713 2572 3713 1747
Q 3713 922 3314 415
Q 2916 -91 2278 -91
Q 1894 -91 1617 61
Q 1341 213 1159 525
z
M 3116 1747
Q 3116 2381 2855 2742
Q 2594 3103 2138 3103
Q 1681 3103 1420 2742
Q 1159 2381 1159 1747
Q 1159 1113 1420 752
Q 1681 391 2138 391
Q 2594 391 2855 752
Q 3116 1113 3116 1747
z
" transform="scale(0.015625)"/>
        <path id="DejaVuSans-77" d="M 269 3500
L 844 3500
L 1563 769
L 2278 3500
L 2956 3500
L 3675 769
L 4391 3500
L 4966 3500
L 4050 0
L 3372 0
L 2619 2869
L 1863 0
L 1184 0
L 269 3500
z
" transform="scale(0.015625)"/>
       </defs>
       <use xlink:href="#DejaVuSans-70"/>
       <use xlink:href="#DejaVuSans-75" transform="translate(63.476562 0)"/>
       <use xlink:href="#DejaVuSans-72" transform="translate(126.855469 0)"/>
       <use xlink:href="#DejaVuSans-61" transform="translate(167.96875 0)"/>
       <use xlink:href="#DejaVuSans-6e" transform="translate(229.248047 0)"/>
       <use xlink:href="#DejaVuSans-2d" transform="translate(292.626953 0)"/>
       <use xlink:href="#DejaVuSans-77" transform="translate(328.710938 0)"/>
       <use xlink:href="#DejaVuSans-61" transform="translate(410.498047 0)"/>
       <use xlink:href="#DejaVuSans-74" transform="translate(471.777344 0)"/>
       <use xlink:href="#DejaVuSans-65" transform="translate(510.986328 0)"/>
       <use xlink:href="#DejaVuSans-72" transform="translate(572.509766 0)"/>
       <use xlink:href="#DejaVuSans-2d" transform="translate(607.248047 0)"/>
       <use xlink:href="#DejaVuSans-61" transform="translate(643.332031 0)"/>
       <use xlink:href="#DejaVuSans-75" transform="translate(704.611328 0)"/>
       <use xlink:href="#DejaVuSans-74" transform="translate(767.990234 0)"/>
       <use xlink:href="#DejaVuSans-6f" transform="translate(807.199219 0)"/>
       <use xlink:href="#DejaVuSans-63" transform="translate(868.380859 0)"/>
       <use xlink:href="#DejaVuSans-61" transform="translate(923.361328 0)"/>
       <use xlink:href="#DejaVuSans-64" transform="translate(984.640625 0)"/>
       <use xlink:href="#DejaVuSans-2d" transform="translate(1048.117188 0)"/>
       <use xlink:href="#DejaVuSans-6d" transform="translate(1084.201172 0)"/>
       <use xlink:href="#DejaVuSans-63" transform="translate(1181.613281 0)"/>
       <use xlink:href="#DejaVuSans-70" transform="translate(1236.59375 0)"/>
      </g>
     </g>
    </g>
    <g id="ytick_2">
     <g id="line2d_14"/>
     <g id="text_9">
      <!-- beiming183-autocad-mcp -->
      <g style="fill: #24292f" transform="translate(4.151802 170.376296) scale(0.1 -0.1)">
       <defs>
        <path id="DejaVuSans-62" d="M 3116 1747
Q 3116 2381 2855 2742
Q 2594 3103 2138 3103
Q 1681 3103 1420 2742
Q 1159 2381 1159 1747
Q 1159 1113 1420 752
Q 1681 391 2138 391
Q 2594 391 2855 752
Q 3116 1113 3116 1747
z
M 1159 2969
Q 1341 3281 1617 3432
Q 1894 3584 2278 3584
Q 2916 3584 3314 3078
Q 3713 2572 3713 1747
Q 3713 922 3314 415
Q 2916 -91 2278 -91
Q 1894 -91 1617 61
Q 1341 213 1159 525
L 1159 0
L 581 0
L 581 4863
L 1159 4863
L 1159 2969
z
" transform="scale(0.015625)"/>
        <path id="DejaVuSans-33" d="M 2597 2516
Q 3050 2419 3304 2112
Q 3559 1806 3559 1356
Q 3559 666 3084 287
Q 2609 -91 1734 -91
Q 1441 -91 1130 -33
Q 819 25 488 141
L 488 750
Q 750 597 1062 519
Q 1375 441 1716 441
Q 2309 441 2620 675
Q 2931 909 2931 1356
Q 2931 1769 2642 2001
Q 2353 2234 1838 2234
L 1294 2234
L 1294 2753
L 1863 2753
Q 2328 2753 2575 2939
Q 2822 3125 2822 3475
Q 2822 3834 2567 4026
Q 2313 4219 1838 4219
Q 1578 4219 1281 4162
Q 984 4106 628 3988
L 628 4550
Q 988 4650 1302 4700
Q 1616 4750 1894 4750
Q 2613 4750 3031 4423
Q 3450 4097 3450 3541
Q 3450 3153 3228 2886
Q 3006 2619 2597 2516
z
" transform="scale(0.015625)"/>
       </defs>
       <use xlink:href="#DejaVuSans-62"/>
       <use xlink:href="#DejaVuSans-65" transform="translate(63.476562 0)"/>
       <use xlink:href="#DejaVuSans-69" transform="translate(125 0)"/>
       <use xlink:href="#DejaVuSans-6d" transform="translate(152.783203 0)"/>
       <use xlink:href="#DejaVuSans-69" transform="translate(250.195312 0)"/>
       <use xlink:href="#DejaVuSans-6e" transform="translate(277.978516 0)"/>
       <use xlink:href="#DejaVuSans-67" transform="translate(341.357422 0)"/>
       <use xlink:href="#DejaVuSans-31" transform="translate(404.833984 0)"/>
       <use xlink:href="#DejaVuSans-38" transform="translate(468.457031 0)"/>
       <use xlink:href="#DejaVuSans-33" transform="translate(532.080078 0)"/>
       <use xlink:href="#DejaVuSans-2d" transform="translate(595.703125 0)"/>
       <use xlink:href="#DejaVuSans-61" transform="translate(631.787109 0)"/>
       <use xlink:href="#DejaVuSans-75" transform="translate(693.066406 0)"/>
       <use xlink:href="#DejaVuSans-74" transform="translate(756.445312 0)"/>
       <use xlink:href="#DejaVuSans-6f" transform="translate(795.654297 0)"/>
       <use xlink:href="#DejaVuSans-63" transform="translate(856.835938 0)"/>
       <use xlink:href="#DejaVuSans-61" transform="translate(911.816406 0)"/>
       <use xlink:href="#DejaVuSans-64" transform="translate(973.095703 0)"/>
       <use xlink:href="#DejaVuSans-2d" transform="translate(1036.572266 0)"/>
       <use xlink:href="#DejaVuSans-6d" transform="translate(1072.65625 0)"/>
       <use xlink:href="#DejaVuSans-63" transform="translate(1170.068359 0)"/>
       <use xlink:href="#DejaVuSans-70" transform="translate(1225.048828 0)"/>
      </g>
     </g>
    </g>
    <g id="ytick_3">
     <g id="line2d_15"/>
     <g id="text_10">
      <!-- autocad-mcp-pro -->
      <g style="fill: #24292f" transform="translate(47.370552 84.470976) scale(0.1 -0.1)">
       <use xlink:href="#DejaVuSans-61"/>
       <use xlink:href="#DejaVuSans-75" transform="translate(61.279297 0)"/>
       <use xlink:href="#DejaVuSans-74" transform="translate(124.658203 0)"/>
       <use xlink:href="#DejaVuSans-6f" transform="translate(163.867188 0)"/>
       <use xlink:href="#DejaVuSans-63" transform="translate(225.048828 0)"/>
       <use xlink:href="#DejaVuSans-61" transform="translate(280.029297 0)"/>
       <use xlink:href="#DejaVuSans-64" transform="translate(341.308594 0)"/>
       <use xlink:href="#DejaVuSans-2d" transform="translate(404.785156 0)"/>
       <use xlink:href="#DejaVuSans-6d" transform="translate(440.869141 0)"/>
       <use xlink:href="#DejaVuSans-63" transform="translate(538.28125 0)"/>
       <use xlink:href="#DejaVuSans-70" transform="translate(593.261719 0)"/>
       <use xlink:href="#DejaVuSans-2d" transform="translate(656.738281 0)"/>
       <use xlink:href="#DejaVuSans-70" transform="translate(692.822266 0)"/>
       <use xlink:href="#DejaVuSans-72" transform="translate(756.298828 0)"/>
       <use xlink:href="#DejaVuSans-6f" transform="translate(795.162109 0)"/>
      </g>
     </g>
    </g>
   </g>
   <g id="patch_3">
    <path d="M 141.00649 277.394941
L 431.59748 277.394941
L 431.59748 227.569855
L 141.00649 227.569855
z
" clip-path="url(#p304dee3b76)" style="fill: #6e7781"/>
   </g>
   <g id="patch_4">
    <path d="M 141.00649 191.48962
L 463.885367 191.48962
L 463.885367 141.664534
L 141.00649 141.664534
z
" clip-path="url(#p304dee3b76)" style="fill: #6e7781"/>
   </g>
   <g id="patch_5">
    <path d="M 141.00649 105.5843
L 786.764245 105.5843
L 786.764245 55.759214
L 141.00649 55.759214
z
" clip-path="url(#p304dee3b76)" style="fill: #0969da"/>
   </g>
   <g id="text_11">
    <!-- Same 10 tasks, same harness, pinned competitor commits; artifacts verified by re-opening the DXF -->
    <g style="fill: #57606a" transform="translate(141.00649 39.801442) scale(0.1 -0.1)">
     <defs>
      <path id="DejaVuSans-53" d="M 3425 4513
L 3425 3897
Q 3066 4069 2747 4153
Q 2428 4238 2131 4238
Q 1616 4238 1336 4038
Q 1056 3838 1056 3469
Q 1056 3159 1242 3001
Q 1428 2844 1947 2747
L 2328 2669
Q 3034 2534 3370 2195
Q 3706 1856 3706 1288
Q 3706 609 3251 259
Q 2797 -91 1919 -91
Q 1588 -91 1214 -16
Q 841 59 441 206
L 441 856
Q 825 641 1194 531
Q 1563 422 1919 422
Q 2459 422 2753 634
Q 3047 847 3047 1241
Q 3047 1584 2836 1778
Q 2625 1972 2144 2069
L 1759 2144
Q 1053 2284 737 2584
Q 422 2884 422 3419
Q 422 4038 858 4394
Q 1294 4750 2059 4750
Q 2388 4750 2728 4690
Q 3069 4631 3425 4513
z
" transform="scale(0.015625)"/>
      <path id="DejaVuSans-2c" d="M 750 794
L 1409 794
L 1409 256
L 897 -744
L 494 -744
L 750 256
L 750 794
z
" transform="scale(0.015625)"/>
      <path id="DejaVuSans-3b" d="M 750 3309
L 1409 3309
L 1409 2516
L 750 2516
L 750 3309
z
M 750 794
L 1409 794
L 1409 256
L 897 -744
L 494 -744
L 750 256
L 750 794
z
" transform="scale(0.015625)"/>
      <path id="DejaVuSans-79" d="M 2059 -325
Q 1816 -950 1584 -1140
Q 1353 -1331 966 -1331
L 506 -1331
L 506 -850
L 844 -850
Q 1081 -850 1212 -737
Q 1344 -625 1503 -206
L 1606 56
L 191 3500
L 800 3500
L 1894 763
L 2988 3500
L 3597 3500
L 2059 -325
z
" transform="scale(0.015625)"/>
      <path id="DejaVuSans-44" d="M 1259 4147
L 1259 519
L 2022 519
Q 2988 519 3436 956
Q 3884 1394 3884 2338
Q 3884 3275 3436 3711
Q 2988 4147 2022 4147
L 1259 4147
z
M 628 4666
L 1925 4666
Q 3281 4666 3915 4102
Q 4550 3538 4550 2338
Q 4550 1131 3912 565
Q 3275 0 1925 0
L 628 0
L 628 4666
z
" transform="scale(0.015625)"/>
      <path id="DejaVuSans-58" d="M 403 4666
L 1081 4666
L 2241 2931
L 3406 4666
L 4084 4666
L 2584 2425
L 4184 0
L 3506 0
L 2194 1984
L 872 0
L 191 0
L 1856 2491
L 403 4666
z
" transform="scale(0.015625)"/>
      <path id="DejaVuSans-46" d="M 628 4666
L 3309 4666
L 3309 4134
L 1259 4134
L 1259 2759
L 3109 2759
L 3109 2228
L 1259 2228
L 1259 0
L 628 0
L 628 4666
z
" transform="scale(0.015625)"/>
     </defs>
     <use xlink:href="#DejaVuSans-53"/>
     <use xlink:href="#DejaVuSans-61" transform="translate(63.476562 0)"/>
     <use xlink:href="#DejaVuSans-6d" transform="translate(124.755859 0)"/>
     <use xlink:href="#DejaVuSans-65" transform="translate(222.167969 0)"/>
     <use xlink:href="#DejaVuSans-20" transform="translate(283.691406 0)"/>
     <use xlink:href="#DejaVuSans-31" transform="translate(315.478516 0)"/>
     <use xlink:href="#DejaVuSans-30" transform="translate(379.101562 0)"/>
     <use xlink:href="#DejaVuSans-20" transform="translate(442.724609 0)"/>
     <use xlink:href="#DejaVuSans-74" transform="translate(474.511719 0)"/>
     <use xlink:href="#DejaVuSans-61" transform="translate(513.720703 0)"/>
     <use xlink:href="#DejaVuSans-73" transform="translate(575 0)"/>
     <use xlink:href="#DejaVuSans-6b" transform="translate(627.099609 0)"/>
     <use xlink:href="#DejaVuSans-73" transform="translate(685.009766 0)"/>
     <use xlink:href="#DejaVuSans-2c" transform="translate(737.109375 0)"/>
     <use xlink:href="#DejaVuSans-20" transform="translate(768.896484 0)"/>
     <use xlink:href="#DejaVuSans-73" transform="translate(800.683594 0)"/>
     <use xlink:href="#DejaVuSans-61" transform="translate(852.783203 0)"/>
     <use xlink:href="#DejaVuSans-6d" transform="translate(914.0625 0)"/>
     <use xlink:href="#DejaVuSans-65" transform="translate(1011.474609 0)"/>
     <use xlink:href="#DejaVuSans-20" transform="translate(1072.998047 0)"/>
     <use xlink:href="#DejaVuSans-68" transform="translate(1104.785156 0)"/>
     <use xlink:href="#DejaVuSans-61" transform="translate(1168.164062 0)"/>
     <use xlink:href="#DejaVuSans-72" transform="translate(1229.443359 0)"/>
     <use xlink:href="#DejaVuSans-6e" transform="translate(1268.806641 0)"/>
     <use xlink:href="#DejaVuSans-65" transform="translate(1332.185547 0)"/>
     <use xlink:href="#DejaVuSans-73" transform="translate(1393.708984 0)"/>
     <use xlink:href="#DejaVuSans-73" transform="translate(1445.808594 0)"/>
     <use xlink:href="#DejaVuSans-2c" transform="translate(1497.908203 0)"/>
     <use xlink:href="#DejaVuSans-20" transform="translate(1529.695312 0)"/>
     <use xlink:href="#DejaVuSans-70" transform="translate(1561.482422 0)"/>
     <use xlink:href="#DejaVuSans-69" transform="translate(1624.958984 0)"/>
     <use xlink:href="#DejaVuSans-6e" transform="translate(1652.742188 0)"/>
     <use xlink:href="#DejaVuSans-6e" transform="translate(1716.121094 0)"/>
     <use xlink:href="#DejaVuSans-65" transform="translate(1779.5 0)"/>
     <use xlink:href="#DejaVuSans-64" transform="translate(1841.023438 0)"/>
     <use xlink:href="#DejaVuSans-20" transform="translate(1904.5 0)"/>
     <use xlink:href="#DejaVuSans-63" transform="translate(1936.287109 0)"/>
     <use xlink:href="#DejaVuSans-6f" transform="translate(1991.267578 0)"/>
     <use xlink:href="#DejaVuSans-6d" transform="translate(2052.449219 0)"/>
     <use xlink:href="#DejaVuSans-70" transform="translate(2149.861328 0)"/>
     <use xlink:href="#DejaVuSans-65" transform="translate(2213.337891 0)"/>
     <use xlink:href="#DejaVuSans-74" transform="translate(2274.861328 0)"/>
     <use xlink:href="#DejaVuSans-69" transform="translate(2314.070312 0)"/>
     <use xlink:href="#DejaVuSans-74" transform="translate(2341.853516 0)"/>
     <use xlink:href="#DejaVuSans-6f" transform="translate(2381.0625 0)"/>
     <use xlink:href="#DejaVuSans-72" transform="translate(2442.244141 0)"/>
     <use xlink:href="#DejaVuSans-20" transform="translate(2483.357422 0)"/>
     <use xlink:href="#DejaVuSans-63" transform="translate(2515.144531 0)"/>
     <use xlink:href="#DejaVuSans-6f" transform="translate(2570.125 0)"/>
     <use xlink:href="#DejaVuSans-6d" transform="translate(2631.306641 0)"/>
     <use xlink:href="#DejaVuSans-6d" transform="translate(2728.71875 0)"/>
     <use xlink:href="#DejaVuSans-69" transform="translate(2826.130859 0)"/>
     <use xlink:href="#DejaVuSans-74" transform="translate(2853.914062 0)"/>
     <use xlink:href="#DejaVuSans-73" transform="translate(2893.123047 0)"/>
     <use xlink:href="#DejaVuSans-3b" transform="translate(2945.222656 0)"/>
     <use xlink:href="#DejaVuSans-20" transform="translate(2978.914062 0)"/>
     <use xlink:href="#DejaVuSans-61" transform="translate(3010.701172 0)"/>
     <use xlink:href="#DejaVuSans-72" transform="translate(3071.980469 0)"/>
     <use xlink:href="#DejaVuSans-74" transform="translate(3113.09375 0)"/>
     <use xlink:href="#DejaVuSans-69" transform="translate(3152.302734 0)"/>
     <use xlink:href="#DejaVuSans-66" transform="translate(3180.085938 0)"/>
     <use xlink:href="#DejaVuSans-61" transform="translate(3215.291016 0)"/>
     <use xlink:href="#DejaVuSans-63" transform="translate(3276.570312 0)"/>
     <use xlink:href="#DejaVuSans-74" transform="translate(3331.550781 0)"/>
     <use xlink:href="#DejaVuSans-73" transform="translate(3370.759766 0)"/>
     <use xlink:href="#DejaVuSans-20" transform="translate(3422.859375 0)"/>
     <use xlink:href="#DejaVuSans-76" transform="translate(3454.646484 0)"/>
     <use xlink:href="#DejaVuSans-65" transform="translate(3513.826172 0)"/>
     <use xlink:href="#DejaVuSans-72" transform="translate(3575.349609 0)"/>
     <use xlink:href="#DejaVuSans-69" transform="translate(3616.462891 0)"/>
     <use xlink:href="#DejaVuSans-66" transform="translate(3644.246094 0)"/>
     <use xlink:href="#DejaVuSans-69" transform="translate(3679.451172 0)"/>
     <use xlink:href="#DejaVuSans-65" transform="translate(3707.234375 0)"/>
     <use xlink:href="#DejaVuSans-64" transform="translate(3768.757812 0)"/>
     <use xlink:href="#DejaVuSans-20" transform="translate(3832.234375 0)"/>
     <use xlink:href="#DejaVuSans-62" transform="translate(3864.021484 0)"/>
     <use xlink:href="#DejaVuSans-79" transform="translate(3927.498047 0)"/>
     <use xlink:href="#DejaVuSans-20" transform="translate(3986.677734 0)"/>
     <use xlink:href="#DejaVuSans-72" transform="translate(4018.464844 0)"/>
     <use xlink:href="#DejaVuSans-65" transform="translate(4057.328125 0)"/>
     <use xlink:href="#DejaVuSans-2d" transform="translate(4118.851562 0)"/>
     <use xlink:href="#DejaVuSans-6f" transform="translate(4156.810547 0)"/>
     <use xlink:href="#DejaVuSans-70" transform="translate(4217.992188 0)"/>
     <use xlink:href="#DejaVuSans-65" transform="translate(4281.46875 0)"/>
     <use xlink:href="#DejaVuSans-6e" transform="translate(4342.992188 0)"/>
     <use xlink:href="#DejaVuSans-69" transform="translate(4406.371094 0)"/>
     <use xlink:href="#DejaVuSans-6e" transform="translate(4434.154297 0)"/>
     <use xlink:href="#DejaVuSans-67" transform="translate(4497.533203 0)"/>
     <use xlink:href="#DejaVuSans-20" transform="translate(4561.009766 0)"/>
     <use xlink:href="#DejaVuSans-74" transform="translate(4592.796875 0)"/>
     <use xlink:href="#DejaVuSans-68" transform="translate(4632.005859 0)"/>
     <use xlink:href="#DejaVuSans-65" transform="translate(4695.384766 0)"/>
     <use xlink:href="#DejaVuSans-20" transform="translate(4756.908203 0)"/>
     <use xlink:href="#DejaVuSans-44" transform="translate(4788.695312 0)"/>
     <use xlink:href="#DejaVuSans-58" transform="translate(4865.697266 0)"/>
     <use xlink:href="#DejaVuSans-46" transform="translate(4934.203125 0)"/>
    </g>
   </g>
   <g id="text_12">
    <!-- 45  (4/10 pass, 50% coverage) -->
    <g style="fill: #24292f" transform="translate(439.346573 255.197241) scale(0.1 -0.1)">
     <defs>
      <path id="DejaVuSans-Bold-34" d="M 2356 3675
L 1038 1722
L 2356 1722
L 2356 3675
z
M 2156 4666
L 3494 4666
L 3494 1722
L 4159 1722
L 4159 850
L 3494 850
L 3494 0
L 2356 0
L 2356 850
L 288 850
L 288 1881
L 2156 4666
z
" transform="scale(0.015625)"/>
      <path id="DejaVuSans-Bold-35" d="M 678 4666
L 3669 4666
L 3669 3781
L 1638 3781
L 1638 3059
Q 1775 3097 1914 3117
Q 2053 3138 2203 3138
Q 3056 3138 3531 2711
Q 4006 2284 4006 1522
Q 4006 766 3489 337
Q 2972 -91 2053 -91
Q 1656 -91 1267 -14
Q 878 63 494 219
L 494 1166
Q 875 947 1217 837
Q 1559 728 1863 728
Q 2300 728 2551 942
Q 2803 1156 2803 1522
Q 2803 1891 2551 2103
Q 2300 2316 1863 2316
Q 1603 2316 1309 2248
Q 1016 2181 678 2041
L 678 4666
z
" transform="scale(0.015625)"/>
      <path id="DejaVuSans-Bold-20" transform="scale(0.015625)"/>
      <path id="DejaVuSans-Bold-28" d="M 2413 -844
L 1484 -844
Q 1006 -72 778 623
Q 550 1319 550 2003
Q 550 2688 779 3389
Q 1009 4091 1484 4856
L 2413 4856
Q 2013 4116 1813 3408
Q 1613 2700 1613 2009
Q 1613 1319 1811 609
Q 2009 -100 2413 -844
z
" transform="scale(0.015625)"/>
      <path id="DejaVuSans-Bold-2f" d="M 1644 4666
L 2338 4666
L 691 -594
L 0 -594
L 1644 4666
z
" transform="scale(0.015625)"/>
      <path id="DejaVuSans-Bold-31" d="M 750 831
L 1813 831
L 1813 3847
L 722 3622
L 722 4441
L 1806 4666
L 2950 4666
L 2950 831
L 4013 831
L 4013 0
L 750 0
L 750 831
z
" transform="scale(0.015625)"/>
      <path id="DejaVuSans-Bold-30" d="M 2944 2338
Q 2944 3213 2780 3570
Q 2616 3928 2228 3928
Q 1841 3928 1675 3570
Q 1509 3213 1509 2338
Q 1509 1453 1675 1090
Q 1841 728 2228 728
Q 2613 728 2778 1090
Q 2944 1453 2944 2338
z
M 4147 2328
Q 4147 1169 3647 539
Q 3147 -91 2228 -91
Q 1306 -91 806 539
Q 306 1169 306 2328
Q 306 3491 806 4120
Q 1306 4750 2228 4750
Q 3147 4750 3647 4120
Q 4147 3491 4147 2328
z
" transform="scale(0.015625)"/>
      <path id="DejaVuSans-Bold-70" d="M 1656 506
L 1656 -1331
L 538 -1331
L 538 3500
L 1656 3500
L 1656 2988
Q 1888 3294 2169 3439
Q 2450 3584 2816 3584
Q 3463 3584 3878 3070
Q 4294 2556 4294 1747
Q 4294 938 3878 423
Q 3463 -91 2816 -91
Q 2450 -91 2169 54
Q 1888 200 1656 506
z
M 2400 2772
Q 2041 2772 1848 2508
Q 1656 2244 1656 1747
Q 1656 1250 1848 986
Q 2041 722 2400 722
Q 2759 722 2948 984
Q 3138 1247 3138 1747
Q 3138 2247 2948 2509
Q 2759 2772 2400 2772
z
" transform="scale(0.015625)"/>
      <path id="DejaVuSans-Bold-61" d="M 2106 1575
Q 1756 1575 1579 1456
Q 1403 1338 1403 1106
Q 1403 894 1545 773
Q 1688 653 1941 653
Q 2256 653 2472 879
Q 2688 1106 2688 1447
L 2688 1575
L 2106 1575
z
M 3816 1997
L 3816 0
L 2688 0
L 2688 519
Q 2463 200 2181 54
Q 1900 -91 1497 -91
Q 953 -91 614 226
Q 275 544 275 1050
Q 275 1666 698 1953
Q 1122 2241 2028 2241
L 2688 2241
L 2688 2328
Q 2688 2594 2478 2717
Q 2269 2841 1825 2841
Q 1466 2841 1156 2769
Q 847 2697 581 2553
L 581 3406
Q 941 3494 1303 3539
Q 1666 3584 2028 3584
Q 2975 3584 3395 3211
Q 3816 2838 3816 1997
z
" transform="scale(0.015625)"/>
      <path id="DejaVuSans-Bold-73" d="M 3272 3391
L 3272 2541
Q 2913 2691 2578 2766
Q 2244 2841 1947 2841
Q 1628 2841 1473 2761
Q 1319 2681 1319 2516
Q 1319 2381 1436 2309
Q 1553 2238 1856 2203
L 2053 2175
Q 2913 2066 3209 1816
Q 3506 1566 3506 1031
Q 3506 472 3093 190
Q 2681 -91 1863 -91
Q 1516 -91 1145 -36
Q 775 19 384 128
L 384 978
Q 719 816 1070 734
Q 1422 653 1784 653
Q 2113 653 2278 743
Q 2444 834 2444 1013
Q 2444 1163 2330 1236
Q 2216 1309 1875 1350
L 1678 1375
Q 931 1469 631 1722
Q 331 1975 331 2491
Q 331 3047 712 3315
Q 1094 3584 1881 3584
Q 2191 3584 2531 3537
Q 2872 3491 3272 3391
z
" transform="scale(0.015625)"/>
      <path id="DejaVuSans-Bold-2c" d="M 653 1209
L 1778 1209
L 1778 256
L 1006 -909
L 341 -909
L 653 256
L 653 1209
z
" transform="scale(0.015625)"/>
      <path id="DejaVuSans-Bold-25" d="M 4959 1925
Q 4738 1925 4616 1733
Q 4494 1541 4494 1184
Q 4494 825 4614 633
Q 4734 441 4959 441
Q 5184 441 5303 633
Q 5422 825 5422 1184
Q 5422 1541 5301 1733
Q 5181 1925 4959 1925
z
M 4959 2450
Q 5541 2450 5875 2112
Q 6209 1775 6209 1184
Q 6209 594 5875 251
Q 5541 -91 4959 -91
Q 4378 -91 4042 251
Q 3706 594 3706 1184
Q 3706 1772 4042 2111
Q 4378 2450 4959 2450
z
M 2094 -91
L 1403 -91
L 4319 4750
L 5013 4750
L 2094 -91
z
M 1453 4750
Q 2034 4750 2367 4411
Q 2700 4072 2700 3481
Q 2700 2891 2367 2550
Q 2034 2209 1453 2209
Q 872 2209 539 2550
Q 206 2891 206 3481
Q 206 4072 539 4411
Q 872 4750 1453 4750
z
M 1453 4225
Q 1228 4225 1106 4031
Q 984 3838 984 3481
Q 984 3122 1106 2926
Q 1228 2731 1453 2731
Q 1678 2731 1798 2926
Q 1919 3122 1919 3481
Q 1919 3838 1797 4031
Q 1675 4225 1453 4225
z
" transform="scale(0.015625)"/>
      <path id="DejaVuSans-Bold-63" d="M 3366 3391
L 3366 2478
Q 3138 2634 2908 2709
Q 2678 2784 2431 2784
Q 1963 2784 1702 2511
Q 1441 2238 1441 1747
Q 1441 1256 1702 982
Q 1963 709 2431 709
Q 2694 709 2930 787
Q 3166 866 3366 1019
L 3366 103
Q 3103 6 2833 -42
Q 2563 -91 2291 -91
Q 1344 -91 809 395
Q 275 881 275 1747
Q 275 2613 809 3098
Q 1344 3584 2291 3584
Q 2566 3584 2833 3536
Q 3100 3488 3366 3391
z
" transform="scale(0.015625)"/>
      <path id="DejaVuSans-Bold-6f" d="M 2203 2784
Q 1831 2784 1636 2517
Q 1441 2250 1441 1747
Q 1441 1244 1636 976
Q 1831 709 2203 709
Q 2569 709 2762 976
Q 2956 1244 2956 1747
Q 2956 2250 2762 2517
Q 2569 2784 2203 2784
z
M 2203 3584
Q 3106 3584 3614 3096
Q 4122 2609 4122 1747
Q 4122 884 3614 396
Q 3106 -91 2203 -91
Q 1297 -91 786 396
Q 275 884 275 1747
Q 275 2609 786 3096
Q 1297 3584 2203 3584
z
" transform="scale(0.015625)"/>
      <path id="DejaVuSans-Bold-76" d="M 97 3500
L 1216 3500
L 2088 1081
L 2956 3500
L 4078 3500
L 2700 0
L 1472 0
L 97 3500
z
" transform="scale(0.015625)"/>
      <path id="DejaVuSans-Bold-65" d="M 4031 1759
L 4031 1441
L 1416 1441
Q 1456 1047 1700 850
Q 1944 653 2381 653
Q 2734 653 3104 758
Q 3475 863 3866 1075
L 3866 213
Q 3469 63 3072 -14
Q 2675 -91 2278 -91
Q 1328 -91 801 392
Q 275 875 275 1747
Q 275 2603 792 3093
Q 1309 3584 2216 3584
Q 3041 3584 3536 3087
Q 4031 2591 4031 1759
z
M 2881 2131
Q 2881 2450 2695 2645
Q 2509 2841 2209 2841
Q 1884 2841 1681 2658
Q 1478 2475 1428 2131
L 2881 2131
z
" transform="scale(0.015625)"/>
      <path id="DejaVuSans-Bold-72" d="M 3138 2547
Q 2991 2616 2845 2648
Q 2700 2681 2553 2681
Q 2122 2681 1889 2404
Q 1656 2128 1656 1613
L 1656 0
L 538 0
L 538 3500
L 1656 3500
L 1656 2925
Q 1872 3269 2151 3426
Q 2431 3584 2822 3584
Q 2878 3584 2943 3579
Q 3009 3575 3134 3559
L 3138 2547
z
" transform="scale(0.015625)"/>
      <path id="DejaVuSans-Bold-67" d="M 2919 594
Q 2688 288 2409 144
Q 2131 0 1766 0
Q 1125 0 706 504
Q 288 1009 288 1791
Q 288 2575 706 3076
Q 1125 3578 1766 3578
Q 2131 3578 2409 3434
Q 2688 3291 2919 2981
L 2919 3500
L 4044 3500
L 4044 353
Q 4044 -491 3511 -936
Q 2978 -1381 1966 -1381
Q 1638 -1381 1331 -1331
Q 1025 -1281 716 -1178
L 716 -306
Q 1009 -475 1290 -558
Q 1572 -641 1856 -641
Q 2406 -641 2662 -400
Q 2919 -159 2919 353
L 2919 594
z
M 2181 2772
Q 1834 2772 1640 2515
Q 1447 2259 1447 1791
Q 1447 1309 1634 1061
Q 1822 813 2181 813
Q 2531 813 2725 1069
Q 2919 1325 2919 1791
Q 2919 2259 2725 2515
Q 2531 2772 2181 2772
z
" transform="scale(0.015625)"/>
      <path id="DejaVuSans-Bold-29" d="M 513 -844
Q 913 -100 1113 609
Q 1313 1319 1313 2009
Q 1313 2700 1113 3408
Q 913 4116 513 4856
L 1441 4856
Q 1916 4091 2145 3389
Q 2375 2688 2375 2003
Q 2375 1319 2147 623
Q 1919 -72 1441 -844
L 513 -844
z
" transform="scale(0.015625)"/>
     </defs>
     <use xlink:href="#DejaVuSans-Bold-34"/>
     <use xlink:href="#DejaVuSans-Bold-35" transform="translate(69.580078 0)"/>
     <use xlink:href="#DejaVuSans-Bold-20" transform="translate(139.160156 0)"/>
     <use xlink:href="#DejaVuSans-Bold-20" transform="translate(173.974609 0)"/>
     <use xlink:href="#DejaVuSans-Bold-28" transform="translate(208.789062 0)"/>
     <use xlink:href="#DejaVuSans-Bold-34" transform="translate(254.492188 0)"/>
     <use xlink:href="#DejaVuSans-Bold-2f" transform="translate(324.072266 0)"/>
     <use xlink:href="#DejaVuSans-Bold-31" transform="translate(360.595703 0)"/>
     <use xlink:href="#DejaVuSans-Bold-30" transform="translate(430.175781 0)"/>
     <use xlink:href="#DejaVuSans-Bold-20" transform="translate(499.755859 0)"/>
     <use xlink:href="#DejaVuSans-Bold-70" transform="translate(534.570312 0)"/>
     <use xlink:href="#DejaVuSans-Bold-61" transform="translate(606.152344 0)"/>
     <use xlink:href="#DejaVuSans-Bold-73" transform="translate(673.632812 0)"/>
     <use xlink:href="#DejaVuSans-Bold-73" transform="translate(733.154297 0)"/>
     <use xlink:href="#DejaVuSans-Bold-2c" transform="translate(792.675781 0)"/>
     <use xlink:href="#DejaVuSans-Bold-20" transform="translate(830.664062 0)"/>
     <use xlink:href="#DejaVuSans-Bold-35" transform="translate(865.478516 0)"/>
     <use xlink:href="#DejaVuSans-Bold-30" transform="translate(935.058594 0)"/>
     <use xlink:href="#DejaVuSans-Bold-25" transform="translate(1004.638672 0)"/>
     <use xlink:href="#DejaVuSans-Bold-20" transform="translate(1104.833984 0)"/>
     <use xlink:href="#DejaVuSans-Bold-63" transform="translate(1139.648438 0)"/>
     <use xlink:href="#DejaVuSans-Bold-6f" transform="translate(1198.925781 0)"/>
     <use xlink:href="#DejaVuSans-Bold-76" transform="translate(1267.626953 0)"/>
     <use xlink:href="#DejaVuSans-Bold-65" transform="translate(1332.8125 0)"/>
     <use xlink:href="#DejaVuSans-Bold-72" transform="translate(1400.634766 0)"/>
     <use xlink:href="#DejaVuSans-Bold-61" transform="translate(1449.951172 0)"/>
     <use xlink:href="#DejaVuSans-Bold-67" transform="translate(1517.431641 0)"/>
     <use xlink:href="#DejaVuSans-Bold-65" transform="translate(1589.013672 0)"/>
     <use xlink:href="#DejaVuSans-Bold-29" transform="translate(1656.835938 0)"/>
    </g>
   </g>
   <g id="text_13">
    <!-- 50  (5/10 pass, 50% coverage) -->
    <g style="fill: #24292f" transform="translate(471.63446 169.291921) scale(0.1 -0.1)">
     <use xlink:href="#DejaVuSans-Bold-35"/>
     <use xlink:href="#DejaVuSans-Bold-30" transform="translate(69.580078 0)"/>
     <use xlink:href="#DejaVuSans-Bold-20" transform="translate(139.160156 0)"/>
     <use xlink:href="#DejaVuSans-Bold-20" transform="translate(173.974609 0)"/>
     <use xlink:href="#DejaVuSans-Bold-28" transform="translate(208.789062 0)"/>
     <use xlink:href="#DejaVuSans-Bold-35" transform="translate(254.492188 0)"/>
     <use xlink:href="#DejaVuSans-Bold-2f" transform="translate(324.072266 0)"/>
     <use xlink:href="#DejaVuSans-Bold-31" transform="translate(360.595703 0)"/>
     <use xlink:href="#DejaVuSans-Bold-30" transform="translate(430.175781 0)"/>
     <use xlink:href="#DejaVuSans-Bold-20" transform="translate(499.755859 0)"/>
     <use xlink:href="#DejaVuSans-Bold-70" transform="translate(534.570312 0)"/>
     <use xlink:href="#DejaVuSans-Bold-61" transform="translate(606.152344 0)"/>
     <use xlink:href="#DejaVuSans-Bold-73" transform="translate(673.632812 0)"/>
     <use xlink:href="#DejaVuSans-Bold-73" transform="translate(733.154297 0)"/>
     <use xlink:href="#DejaVuSans-Bold-2c" transform="translate(792.675781 0)"/>
     <use xlink:href="#DejaVuSans-Bold-20" transform="translate(830.664062 0)"/>
     <use xlink:href="#DejaVuSans-Bold-35" transform="translate(865.478516 0)"/>
     <use xlink:href="#DejaVuSans-Bold-30" transform="translate(935.058594 0)"/>
     <use xlink:href="#DejaVuSans-Bold-25" transform="translate(1004.638672 0)"/>
     <use xlink:href="#DejaVuSans-Bold-20" transform="translate(1104.833984 0)"/>
     <use xlink:href="#DejaVuSans-Bold-63" transform="translate(1139.648438 0)"/>
     <use xlink:href="#DejaVuSans-Bold-6f" transform="translate(1198.925781 0)"/>
     <use xlink:href="#DejaVuSans-Bold-76" transform="translate(1267.626953 0)"/>
     <use xlink:href="#DejaVuSans-Bold-65" transform="translate(1332.8125 0)"/>
     <use xlink:href="#DejaVuSans-Bold-72" transform="translate(1400.634766 0)"/>
     <use xlink:href="#DejaVuSans-Bold-61" transform="translate(1449.951172 0)"/>
     <use xlink:href="#DejaVuSans-Bold-67" transform="translate(1517.431641 0)"/>
     <use xlink:href="#DejaVuSans-Bold-65" transform="translate(1589.013672 0)"/>
     <use xlink:href="#DejaVuSans-Bold-29" transform="translate(1656.835938 0)"/>
    </g>
   </g>
   <g id="text_14">
    <!-- 100  (10/10 pass, 100% coverage) -->
    <g style="fill: #24292f" transform="translate(670.527849 83.386601) scale(0.1 -0.1)">
     <use xlink:href="#DejaVuSans-Bold-31"/>
     <use xlink:href="#DejaVuSans-Bold-30" transform="translate(69.580078 0)"/>
     <use xlink:href="#DejaVuSans-Bold-30" transform="translate(139.160156 0)"/>
     <use xlink:href="#DejaVuSans-Bold-20" transform="translate(208.740234 0)"/>
     <use xlink:href="#DejaVuSans-Bold-20" transform="translate(243.554688 0)"/>
     <use xlink:href="#DejaVuSans-Bold-28" transform="translate(278.369141 0)"/>
     <use xlink:href="#DejaVuSans-Bold-31" transform="translate(324.072266 0)"/>
     <use xlink:href="#DejaVuSans-Bold-30" transform="translate(393.652344 0)"/>
     <use xlink:href="#DejaVuSans-Bold-2f" transform="translate(463.232422 0)"/>
     <use xlink:href="#DejaVuSans-Bold-31" transform="translate(499.755859 0)"/>
     <use xlink:href="#DejaVuSans-Bold-30" transform="translate(569.335938 0)"/>
     <use xlink:href="#DejaVuSans-Bold-20" transform="translate(638.916016 0)"/>
     <use xlink:href="#DejaVuSans-Bold-70" transform="translate(673.730469 0)"/>
     <use xlink:href="#DejaVuSans-Bold-61" transform="translate(745.3125 0)"/>
     <use xlink:href="#DejaVuSans-Bold-73" transform="translate(812.792969 0)"/>
     <use xlink:href="#DejaVuSans-Bold-73" transform="translate(872.314453 0)"/>
     <use xlink:href="#DejaVuSans-Bold-2c" transform="translate(931.835938 0)"/>
     <use xlink:href="#DejaVuSans-Bold-20" transform="translate(969.824219 0)"/>
     <use xlink:href="#DejaVuSans-Bold-31" transform="translate(1004.638672 0)"/>
     <use xlink:href="#DejaVuSans-Bold-30" transform="translate(1074.21875 0)"/>
     <use xlink:href="#DejaVuSans-Bold-30" transform="translate(1143.798828 0)"/>
     <use xlink:href="#DejaVuSans-Bold-25" transform="translate(1213.378906 0)"/>
     <use xlink:href="#DejaVuSans-Bold-20" transform="translate(1313.574219 0)"/>
     <use xlink:href="#DejaVuSans-Bold-63" transform="translate(1348.388672 0)"/>
     <use xlink:href="#DejaVuSans-Bold-6f" transform="translate(1407.666016 0)"/>
     <use xlink:href="#DejaVuSans-Bold-76" transform="translate(1476.367188 0)"/>
     <use xlink:href="#DejaVuSans-Bold-65" transform="translate(1541.552734 0)"/>
     <use xlink:href="#DejaVuSans-Bold-72" transform="translate(1609.375 0)"/>
     <use xlink:href="#DejaVuSans-Bold-61" transform="translate(1658.691406 0)"/>
     <use xlink:href="#DejaVuSans-Bold-67" transform="translate(1726.171875 0)"/>
     <use xlink:href="#DejaVuSans-Bold-65" transform="translate(1797.753906 0)"/>
     <use xlink:href="#DejaVuSans-Bold-29" transform="translate(1865.576172 0)"/>
    </g>
   </g>
   <g id="text_15">
    <!-- Unsupported tasks score 0 in the fixed matrix; per-task statuses and reasons are in benchmarks/results/published/. -->
    <g style="fill: #57606a" transform="translate(141.00649 342.112573) scale(0.09 -0.09)">
     <defs>
      <path id="DejaVuSans-55" d="M 556 4666
L 1191 4666
L 1191 1831
Q 1191 1081 1462 751
Q 1734 422 2344 422
Q 2950 422 3222 751
Q 3494 1081 3494 1831
L 3494 4666
L 4128 4666
L 4128 1753
Q 4128 841 3676 375
Q 3225 -91 2344 -91
Q 1459 -91 1007 375
Q 556 841 556 1753
L 556 4666
z
" transform="scale(0.015625)"/>
      <path id="DejaVuSans-2e" d="M 684 794
L 1344 794
L 1344 0
L 684 0
L 684 794
z
" transform="scale(0.015625)"/>
     </defs>
     <use xlink:href="#DejaVuSans-55"/>
     <use xlink:href="#DejaVuSans-6e" transform="translate(73.193359 0)"/>
     <use xlink:href="#DejaVuSans-73" transform="translate(136.572266 0)"/>
     <use xlink:href="#DejaVuSans-75" transform="translate(188.671875 0)"/>
     <use xlink:href="#DejaVuSans-70" transform="translate(252.050781 0)"/>
     <use xlink:href="#DejaVuSans-70" transform="translate(315.527344 0)"/>
     <use xlink:href="#DejaVuSans-6f" transform="translate(379.003906 0)"/>
     <use xlink:href="#DejaVuSans-72" transform="translate(440.185547 0)"/>
     <use xlink:href="#DejaVuSans-74" transform="translate(481.298828 0)"/>
     <use xlink:href="#DejaVuSans-65" transform="translate(520.507812 0)"/>
     <use xlink:href="#DejaVuSans-64" transform="translate(582.03125 0)"/>
     <use xlink:href="#DejaVuSans-20" transform="translate(645.507812 0)"/>
     <use xlink:href="#DejaVuSans-74" transform="translate(677.294922 0)"/>
     <use xlink:href="#DejaVuSans-61" transform="translate(716.503906 0)"/>
     <use xlink:href="#DejaVuSans-73" transform="translate(777.783203 0)"/>
     <use xlink:href="#DejaVuSans-6b" transform="translate(829.882812 0)"/>
     <use xlink:href="#DejaVuSans-73" transform="translate(887.792969 0)"/>
     <use xlink:href="#DejaVuSans-20" transform="translate(939.892578 0)"/>
     <use xlink:href="#DejaVuSans-73" transform="translate(971.679688 0)"/>
     <use xlink:href="#DejaVuSans-63" transform="translate(1023.779297 0)"/>
     <use xlink:href="#DejaVuSans-6f" transform="translate(1078.759766 0)"/>
     <use xlink:href="#DejaVuSans-72" transform="translate(1139.941406 0)"/>
     <use xlink:href="#DejaVuSans-65" transform="translate(1178.804688 0)"/>
     <use xlink:href="#DejaVuSans-20" transform="translate(1240.328125 0)"/>
     <use xlink:href="#DejaVuSans-30" transform="translate(1272.115234 0)"/>
     <use xlink:href="#DejaVuSans-20" transform="translate(1335.738281 0)"/>
     <use xlink:href="#DejaVuSans-69" transform="translate(1367.525391 0)"/>
     <use xlink:href="#DejaVuSans-6e" transform="translate(1395.308594 0)"/>
     <use xlink:href="#DejaVuSans-20" transform="translate(1458.6875 0)"/>
     <use xlink:href="#DejaVuSans-74" transform="translate(1490.474609 0)"/>
     <use xlink:href="#DejaVuSans-68" transform="translate(1529.683594 0)"/>
     <use xlink:href="#DejaVuSans-65" transform="translate(1593.0625 0)"/>
     <use xlink:href="#DejaVuSans-20" transform="translate(1654.585938 0)"/>
     <use xlink:href="#DejaVuSans-66" transform="translate(1686.373047 0)"/>
     <use xlink:href="#DejaVuSans-69" transform="translate(1721.578125 0)"/>
     <use xlink:href="#DejaVuSans-78" transform="translate(1749.361328 0)"/>
     <use xlink:href="#DejaVuSans-65" transform="translate(1805.416016 0)"/>
     <use xlink:href="#DejaVuSans-64" transform="translate(1866.939453 0)"/>
     <use xlink:href="#DejaVuSans-20" transform="translate(1930.416016 0)"/>
     <use xlink:href="#DejaVuSans-6d" transform="translate(1962.203125 0)"/>
     <use xlink:href="#DejaVuSans-61" transform="translate(2059.615234 0)"/>
     <use xlink:href="#DejaVuSans-74" transform="translate(2120.894531 0)"/>
     <use xlink:href="#DejaVuSans-72" transform="translate(2160.103516 0)"/>
     <use xlink:href="#DejaVuSans-69" transform="translate(2201.216797 0)"/>
     <use xlink:href="#DejaVuSans-78" transform="translate(2229 0)"/>
     <use xlink:href="#DejaVuSans-3b" transform="translate(2288.179688 0)"/>
     <use xlink:href="#DejaVuSans-20" transform="translate(2321.871094 0)"/>
     <use xlink:href="#DejaVuSans-70" transform="translate(2353.658203 0)"/>
     <use xlink:href="#DejaVuSans-65" transform="translate(2417.134766 0)"/>
     <use xlink:href="#DejaVuSans-72" transform="translate(2478.658203 0)"/>
     <use xlink:href="#DejaVuSans-2d" transform="translate(2513.396484 0)"/>
     <use xlink:href="#DejaVuSans-74" transform="translate(2549.480469 0)"/>
     <use xlink:href="#DejaVuSans-61" transform="translate(2588.689453 0)"/>
     <use xlink:href="#DejaVuSans-73" transform="translate(2649.96875 0)"/>
     <use xlink:href="#DejaVuSans-6b" transform="translate(2702.068359 0)"/>
     <use xlink:href="#DejaVuSans-20" transform="translate(2759.978516 0)"/>
     <use xlink:href="#DejaVuSans-73" transform="translate(2791.765625 0)"/>
     <use xlink:href="#DejaVuSans-74" transform="translate(2843.865234 0)"/>
     <use xlink:href="#DejaVuSans-61" transform="translate(2883.074219 0)"/>
     <use xlink:href="#DejaVuSans-74" transform="translate(2944.353516 0)"/>
     <use xlink:href="#DejaVuSans-75" transform="translate(2983.5625 0)"/>
     <use xlink:href="#DejaVuSans-73" transform="translate(3046.941406 0)"/>
     <use xlink:href="#DejaVuSans-65" transform="translate(3099.041016 0)"/>
     <use xlink:href="#DejaVuSans-73" transform="translate(3160.564453 0)"/>
     <use xlink:href="#DejaVuSans-20" transform="translate(3212.664062 0)"/>
     <use xlink:href="#DejaVuSans-61" transform="translate(3244.451172 0)"/>
     <use xlink:href="#DejaVuSans-6e" transform="translate(3305.730469 0)"/>
     <use xlink:href="#DejaVuSans-64" transform="translate(3369.109375 0)"/>
     <use xlink:href="#DejaVuSans-20" transform="translate(3432.585938 0)"/>
     <use xlink:href="#DejaVuSans-72" transform="translate(3464.373047 0)"/>
     <use xlink:href="#DejaVuSans-65" transform="translate(3503.236328 0)"/>
     <use xlink:href="#DejaVuSans-61" transform="translate(3564.759766 0)"/>
     <use xlink:href="#DejaVuSans-73" transform="translate(3626.039062 0)"/>
     <use xlink:href="#DejaVuSans-6f" transform="translate(3678.138672 0)"/>
     <use xlink:href="#DejaVuSans-6e" transform="translate(3739.320312 0)"/>
     <use xlink:href="#DejaVuSans-73" transform="translate(3802.699219 0)"/>
     <use xlink:href="#DejaVuSans-20" transform="translate(3854.798828 0)"/>
     <use xlink:href="#DejaVuSans-61" transform="translate(3886.585938 0)"/>
     <use xlink:href="#DejaVuSans-72" transform="translate(3947.865234 0)"/>
     <use xlink:href="#DejaVuSans-65" transform="translate(3986.728516 0)"/>
     <use xlink:href="#DejaVuSans-20" transform="translate(4048.251953 0)"/>
     <use xlink:href="#DejaVuSans-69" transform="translate(4080.039062 0)"/>
     <use xlink:href="#DejaVuSans-6e" transform="translate(4107.822266 0)"/>
     <use xlink:href="#DejaVuSans-20" transform="translate(4171.201172 0)"/>
     <use xlink:href="#DejaVuSans-62" transform="translate(4202.988281 0)"/>
     <use xlink:href="#DejaVuSans-65" transform="translate(4266.464844 0)"/>
     <use xlink:href="#DejaVuSans-6e" transform="translate(4327.988281 0)"/>
     <use xlink:href="#DejaVuSans-63" transform="translate(4391.367188 0)"/>
     <use xlink:href="#DejaVuSans-68" transform="translate(4446.347656 0)"/>
     <use xlink:href="#DejaVuSans-6d" transform="translate(4509.726562 0)"/>
     <use xlink:href="#DejaVuSans-61" transform="translate(4607.138672 0)"/>
     <use xlink:href="#DejaVuSans-72" transform="translate(4668.417969 0)"/>
     <use xlink:href="#DejaVuSans-6b" transform="translate(4709.53125 0)"/>
     <use xlink:href="#DejaVuSans-73" transform="translate(4767.441406 0)"/>
     <use xlink:href="#DejaVuSans-2f" transform="translate(4819.541016 0)"/>
     <use xlink:href="#DejaVuSans-72" transform="translate(4853.232422 0)"/>
     <use xlink:href="#DejaVuSans-65" transform="translate(4892.095703 0)"/>
     <use xlink:href="#DejaVuSans-73" transform="translate(4953.619141 0)"/>
     <use xlink:href="#DejaVuSans-75" transform="translate(5005.71875 0)"/>
     <use xlink:href="#DejaVuSans-6c" transform="translate(5069.097656 0)"/>
     <use xlink:href="#DejaVuSans-74" transform="translate(5096.880859 0)"/>
     <use xlink:href="#DejaVuSans-73" transform="translate(5136.089844 0)"/>
     <use xlink:href="#DejaVuSans-2f" transform="translate(5188.189453 0)"/>
     <use xlink:href="#DejaVuSans-70" transform="translate(5221.880859 0)"/>
     <use xlink:href="#DejaVuSans-75" transform="translate(5285.357422 0)"/>
     <use xlink:href="#DejaVuSans-62" transform="translate(5348.736328 0)"/>
     <use xlink:href="#DejaVuSans-6c" transform="translate(5412.212891 0)"/>
     <use xlink:href="#DejaVuSans-69" transform="translate(5439.996094 0)"/>
     <use xlink:href="#DejaVuSans-73" transform="translate(5467.779297 0)"/>
     <use xlink:href="#DejaVuSans-68" transform="translate(5519.878906 0)"/>
     <use xlink:href="#DejaVuSans-65" transform="translate(5583.257812 0)"/>
     <use xlink:href="#DejaVuSans-64" transform="translate(5644.78125 0)"/>
     <use xlink:href="#DejaVuSans-2f" transform="translate(5708.257812 0)"/>
     <use xlink:href="#DejaVuSans-2e" transform="translate(5741.949219 0)"/>
    </g>
   </g>
   <g id="text_16">
    <!-- Live-run benchmark - headless ezdxf lane -->
    <g style="fill: #24292f" transform="translate(141.00649 16.677428) scale(0.18 -0.18)">
     <defs>
      <path id="DejaVuSans-Bold-4c" d="M 588 4666
L 1791 4666
L 1791 909
L 3903 909
L 3903 0
L 588 0
L 588 4666
z
" transform="scale(0.015625)"/>
      <path id="DejaVuSans-Bold-69" d="M 538 3500
L 1656 3500
L 1656 0
L 538 0
L 538 3500
z
M 538 4863
L 1656 4863
L 1656 3950
L 538 3950
L 538 4863
z
" transform="scale(0.015625)"/>
      <path id="DejaVuSans-Bold-2d" d="M 347 2297
L 2309 2297
L 2309 1388
L 347 1388
L 347 2297
z
" transform="scale(0.015625)"/>
      <path id="DejaVuSans-Bold-75" d="M 500 1363
L 500 3500
L 1625 3500
L 1625 3150
Q 1625 2866 1622 2436
Q 1619 2006 1619 1863
Q 1619 1441 1641 1255
Q 1663 1069 1716 984
Q 1784 875 1895 815
Q 2006 756 2150 756
Q 2500 756 2700 1025
Q 2900 1294 2900 1772
L 2900 3500
L 4019 3500
L 4019 0
L 2900 0
L 2900 506
Q 2647 200 2364 54
Q 2081 -91 1741 -91
Q 1134 -91 817 281
Q 500 653 500 1363
z
" transform="scale(0.015625)"/>
      <path id="DejaVuSans-Bold-6e" d="M 4056 2131
L 4056 0
L 2931 0
L 2931 347
L 2931 1631
Q 2931 2084 2911 2256
Q 2891 2428 2841 2509
Q 2775 2619 2662 2680
Q 2550 2741 2406 2741
Q 2056 2741 1856 2470
Q 1656 2200 1656 1722
L 1656 0
L 538 0
L 538 3500
L 1656 3500
L 1656 2988
Q 1909 3294 2193 3439
Q 2478 3584 2822 3584
Q 3428 3584 3742 3212
Q 4056 2841 4056 2131
z
" transform="scale(0.015625)"/>
      <path id="DejaVuSans-Bold-62" d="M 2400 722
Q 2759 722 2948 984
Q 3138 1247 3138 1747
Q 3138 2247 2948 2509
Q 2759 2772 2400 2772
Q 2041 2772 1848 2508
Q 1656 2244 1656 1747
Q 1656 1250 1848 986
Q 2041 722 2400 722
z
M 1656 2988
Q 1888 3294 2169 3439
Q 2450 3584 2816 3584
Q 3463 3584 3878 3070
Q 4294 2556 4294 1747
Q 4294 938 3878 423
Q 3463 -91 2816 -91
Q 2450 -91 2169 54
Q 1888 200 1656 506
L 1656 0
L 538 0
L 538 4863
L 1656 4863
L 1656 2988
z
" transform="scale(0.015625)"/>
      <path id="DejaVuSans-Bold-68" d="M 4056 2131
L 4056 0
L 2931 0
L 2931 347
L 2931 1625
Q 2931 2084 2911 2256
Q 2891 2428 2841 2509
Q 2775 2619 2662 2680
Q 2550 2741 2406 2741
Q 2056 2741 1856 2470
Q 1656 2200 1656 1722
L 1656 0
L 538 0
L 538 4863
L 1656 4863
L 1656 2988
Q 1909 3294 2193 3439
Q 2478 3584 2822 3584
Q 3428 3584 3742 3212
Q 4056 2841 4056 2131
z
" transform="scale(0.015625)"/>
      <path id="DejaVuSans-Bold-6d" d="M 3781 2919
Q 3994 3244 4286 3414
Q 4578 3584 4928 3584
Q 5531 3584 5847 3212
Q 6163 2841 6163 2131
L 6163 0
L 5038 0
L 5038 1825
Q 5041 1866 5042 1909
Q 5044 1953 5044 2034
Q 5044 2406 4934 2573
Q 4825 2741 4581 2741
Q 4263 2741 4089 2478
Q 3916 2216 3909 1719
L 3909 0
L 2784 0
L 2784 1825
Q 2784 2406 2684 2573
Q 2584 2741 2328 2741
Q 2006 2741 1831 2477
Q 1656 2213 1656 1722
L 1656 0
L 531 0
L 531 3500
L 1656 3500
L 1656 2988
Q 1863 3284 2130 3434
Q 2397 3584 2719 3584
Q 3081 3584 3359 3409
Q 3638 3234 3781 2919
z
" transform="scale(0.015625)"/>
      <path id="DejaVuSans-Bold-6b" d="M 538 4863
L 1656 4863
L 1656 2216
L 2944 3500
L 4244 3500
L 2534 1894
L 4378 0
L 3022 0
L 1656 1459
L 1656 0
L 538 0
L 538 4863
z
" transform="scale(0.015625)"/>
      <path id="DejaVuSans-Bold-64" d="M 2919 2988
L 2919 4863
L 4044 4863
L 4044 0
L 2919 0
L 2919 506
Q 2688 197 2409 53
Q 2131 -91 1766 -91
Q 1119 -91 703 423
Q 288 938 288 1747
Q 288 2556 703 3070
Q 1119 3584 1766 3584
Q 2128 3584 2408 3439
Q 2688 3294 2919 2988
z
M 2181 722
Q 2541 722 2730 984
Q 2919 1247 2919 1747
Q 2919 2247 2730 2509
Q 2541 2772 2181 2772
Q 1825 2772 1636 2509
Q 1447 2247 1447 1747
Q 1447 1247 1636 984
Q 1825 722 2181 722
z
" transform="scale(0.015625)"/>
      <path id="DejaVuSans-Bold-6c" d="M 538 4863
L 1656 4863
L 1656 0
L 538 0
L 538 4863
z
" transform="scale(0.015625)"/>
      <path id="DejaVuSans-Bold-7a" d="M 366 3500
L 3419 3500
L 3419 2719
L 1575 800
L 3419 800
L 3419 0
L 288 0
L 288 781
L 2131 2700
L 366 2700
L 366 3500
z
" transform="scale(0.015625)"/>
      <path id="DejaVuSans-Bold-78" d="M 1422 1791
L 159 3500
L 1344 3500
L 2059 2463
L 2784 3500
L 3969 3500
L 2706 1797
L 4031 0
L 2847 0
L 2059 1106
L 1281 0
L 97 0
L 1422 1791
z
" transform="scale(0.015625)"/>
      <path id="DejaVuSans-Bold-66" d="M 2841 4863
L 2841 4128
L 2222 4128
Q 1984 4128 1890 4042
Q 1797 3956 1797 3744
L 1797 3500
L 2753 3500
L 2753 2700
L 1797 2700
L 1797 0
L 678 0
L 678 2700
L 122 2700
L 122 3500
L 678 3500
L 678 3744
Q 678 4316 997 4589
Q 1316 4863 1984 4863
L 2841 4863
z
" transform="scale(0.015625)"/>
     </defs>
     <use xlink:href="#DejaVuSans-Bold-4c"/>
     <use xlink:href="#DejaVuSans-Bold-69" transform="translate(63.720703 0)"/>
     <use xlink:href="#DejaVuSans-Bold-76" transform="translate(97.998047 0)"/>
     <use xlink:href="#DejaVuSans-Bold-65" transform="translate(163.183594 0)"/>
     <use xlink:href="#DejaVuSans-Bold-2d" transform="translate(231.005859 0)"/>
     <use xlink:href="#DejaVuSans-Bold-72" transform="translate(272.509766 0)"/>
     <use xlink:href="#DejaVuSans-Bold-75" transform="translate(321.826172 0)"/>
     <use xlink:href="#DejaVuSans-Bold-6e" transform="translate(393.017578 0)"/>
     <use xlink:href="#DejaVuSans-Bold-20" transform="translate(464.208984 0)"/>
     <use xlink:href="#DejaVuSans-Bold-62" transform="translate(499.023438 0)"/>
     <use xlink:href="#DejaVuSans-Bold-65" transform="translate(570.605469 0)"/>
     <use xlink:href="#DejaVuSans-Bold-6e" transform="translate(638.427734 0)"/>
     <use xlink:href="#DejaVuSans-Bold-63" transform="translate(709.619141 0)"/>
     <use xlink:href="#DejaVuSans-Bold-68" transform="translate(768.896484 0)"/>
     <use xlink:href="#DejaVuSans-Bold-6d" transform="translate(840.087891 0)"/>
     <use xlink:href="#DejaVuSans-Bold-61" transform="translate(944.287109 0)"/>
     <use xlink:href="#DejaVuSans-Bold-72" transform="translate(1011.767578 0)"/>
     <use xlink:href="#DejaVuSans-Bold-6b" transform="translate(1061.083984 0)"/>
     <use xlink:href="#DejaVuSans-Bold-20" transform="translate(1127.587891 0)"/>
     <use xlink:href="#DejaVuSans-Bold-2d" transform="translate(1162.402344 0)"/>
     <use xlink:href="#DejaVuSans-Bold-20" transform="translate(1203.90625 0)"/>
     <use xlink:href="#DejaVuSans-Bold-68" transform="translate(1238.720703 0)"/>
     <use xlink:href="#DejaVuSans-Bold-65" transform="translate(1309.912109 0)"/>
     <use xlink:href="#DejaVuSans-Bold-61" transform="translate(1377.734375 0)"/>
     <use xlink:href="#DejaVuSans-Bold-64" transform="translate(1445.214844 0)"/>
     <use xlink:href="#DejaVuSans-Bold-6c" transform="translate(1516.796875 0)"/>
     <use xlink:href="#DejaVuSans-Bold-65" transform="translate(1551.074219 0)"/>
     <use xlink:href="#DejaVuSans-Bold-73" transform="translate(1618.896484 0)"/>
     <use xlink:href="#DejaVuSans-Bold-73" transform="translate(1678.417969 0)"/>
     <use xlink:href="#DejaVuSans-Bold-20" transform="translate(1737.939453 0)"/>
     <use xlink:href="#DejaVuSans-Bold-65" transform="translate(1772.753906 0)"/>
     <use xlink:href="#DejaVuSans-Bold-7a" transform="translate(1840.576172 0)"/>
     <use xlink:href="#DejaVuSans-Bold-64" transform="translate(1898.779297 0)"/>
     <use xlink:href="#DejaVuSans-Bold-78" transform="translate(1970.361328 0)"/>
     <use xlink:href="#DejaVuSans-Bold-66" transform="translate(2034.863281 0)"/>
     <use xlink:href="#DejaVuSans-Bold-20" transform="translate(2078.369141 0)"/>
     <use xlink:href="#DejaVuSans-Bold-6c" transform="translate(2113.183594 0)"/>
     <use xlink:href="#DejaVuSans-Bold-61" transform="translate(2147.460938 0)"/>
     <use xlink:href="#DejaVuSans-Bold-6e" transform="translate(2214.941406 0)"/>
     <use xlink:href="#DejaVuSans-Bold-65" transform="translate(2286.132812 0)"/>
    </g>
   </g>
  </g>
 </g>
 <defs>
  <clipPath id="p304dee3b76">
   <rect x="141.00649" y="44.677428" width="645.757755" height="243.7993"/>
  </clipPath>
 </defs>
</svg>
